<svg t="1749632038438" class="icon" viewBox="0 0 1024 1024" version="1.1" xmlns="http://www.w3.org/2000/svg" p-id="1428"
     width="81" height="81">
    <path d="M0 512a512 512 0 1 0 1024 0 512 512 0 1 0-1024 0Z" fill="#a0ca29" p-id="1429"></path>
    <path d="M608.442182 477.928727h138.146909v-44.497454h-100.165818l-52.317091-130.327273a59.578182 59.578182 0 0 0-96.256-17.128727l-134.981818 134.981818a59.578182 59.578182 0 0 0 9.309091 91.973818l125.672727 67.025455V726.109091h55.854545l-1.117091-189.719273-79.685818-57.902545 85.643637-83.223273z m0 0M631.156364 280.203636a65.908364 65.908364 0 1 0-65.908364-65.908363 65.908364 65.908364 0 0 0 65.908364 65.908363z m0 0"
          fill="#FFFFFF" p-id="1430"></path>
    <path d="M318.557091 566.737455a142.801455 142.801455 0 1 0 142.801454 142.801454 142.987636 142.987636 0 0 0-142.801454-142.801454z m0 225.838545a82.850909 82.850909 0 1 1 83.037091-82.850909 83.037091 83.037091 0 0 1-83.037091 82.850909z m0 0M735.790545 566.737455a142.801455 142.801455 0 1 0 142.801455 142.801454 142.987636 142.987636 0 0 0-142.801455-142.801454z m0 225.838545A82.850909 82.850909 0 1 1 819.2 709.538909a83.037091 83.037091 0 0 1-83.037091 82.850909z m0 0"
          fill="#FFFFFF" p-id="1431"></path>
</svg>